<svg xmlns="http://www.w3.org/2000/svg" viewBox="0 0 400 400">
    <defs>
        <style>.cls-1{fill:#ffd54f;}.cls-2{fill:#0c5167;}.cls-3{fill:#ffecb3;}</style>
    </defs>
    <g id="padlock-top" data-name="Calque 5">
        <path class="cls-1"
              d="M126,259.51V145.07c0-41.66,33.65-75.55,75-75.55h1c40.8.53,74,35,74,76.75V206.9L265.1,217.85h-9.64L244.59,206.9V202a14.74,14.74,0,0,0,0-27.68v-30A43.8,43.8,0,0,0,201,100.38h-1.22c-23.38.65-42.4,20.69-42.4,44.68V259.51Z"/>
        <path class="cls-2"
              d="M201,74.51h.93C240,75,271,107.21,271,146.27v58.57l-8,8h-5.46l-7.8-7.85a19.74,19.74,0,0,0-.16-33.85V144.26a48.73,48.73,0,0,0-14.21-34.54A48.14,48.14,0,0,0,201,95.38h-1.36c-26.06.72-47.26,23-47.26,49.68V254.51H131V145.07A70.33,70.33,0,0,1,151.5,95.16,69.24,69.24,0,0,1,201,74.51h0m0-10c-44.18,0-80,36.07-80,80.56V264.51h41.38V145.07c0-21.19,16.5-39.1,37.54-39.68H201a38.75,38.75,0,0,1,38.62,38.88V178.4a9.73,9.73,0,0,1,0,19.45V209c5.39,5.42,8.41,8.46,13.79,13.89h13.8c5.38-5.43,8.4-8.47,13.79-13.89V146.27C281,102,246,65.1,202,64.52Z"/>
    </g>
    <g>
        <rect class="cls-1" x="96" y="165.85" width="208" height="183.19" rx="25" ry="25"/>
        <path class="cls-3"
              d="M120,166.82h78.6a0,0,0,0,1,0,0V348a0,0,0,0,1,0,0H120a25,25,0,0,1-25-25V191.82A25,25,0,0,1,120,166.82Z"/>
        <path class="cls-2"
              d="M279.7,175a15,15,0,0,1,15,15V325.4a15,15,0,0,1-15,15h-160a15,15,0,0,1-15-15V190a15,15,0,0,1,15-15h160m0-10h-160a25,25,0,0,0-25,25V325.4a25,25,0,0,0,25,25h160a25,25,0,0,0,25-25V190a25,25,0,0,0-25-25Z"/>
        <path class="cls-1"
              d="M186.5,291.07a1.11,1.11,0,0,1-.8-.33,1.14,1.14,0,0,1-.32-.8l.69-33.48-1.77-1.54a25,25,0,0,1,14.78-43.8c.55,0,1.09-.05,1.63-.05a25,25,0,0,1,15.8,44.37L214.57,257l1.34,32.89a1.09,1.09,0,0,1-.31.82,1.11,1.11,0,0,1-.8.34Z"/>
        <path class="cls-2"
              d="M200.71,216.07a20,20,0,0,1,12.64,35.5l-3.88,3.16.21,5,1.07,26.35H190.46l.56-27.18.09-4.67-3.52-3.07a20,20,0,0,1,11.81-35c.44,0,.88,0,1.31,0m0-10c-.64,0-1.29,0-1.94.06A30,30,0,0,0,181,258.69l-.63,31.14a6.1,6.1,0,0,0,6.1,6.24H214.8a6.11,6.11,0,0,0,6.11-6.36l-1.24-30.39a30,30,0,0,0-19-53.25Z"/>
    </g>
</svg>