<svg id="Calque_1" data-name="Calque 1" xmlns="http://www.w3.org/2000/svg" viewBox="0 0 548.54 685.07"><defs><style>.cls-3{fill:#ffecb3}.cls-3,.cls-5,.cls-6{stroke:#0c5167;stroke-width:7px;stroke-miterlimit:10}.cls-5{fill:#ffd54f}.cls-6{fill:#666}</style></defs><g id="etat_5" data-name="etat 5"><path d="M479.39 557.5v-3a8.51 8.51 0 0 0-8.5-8.5h-390a8.51 8.51 0 0 0-8.5 8.5v3a8.51 8.51 0 0 0 8.5 8.5h22a8.51 8.51 0 0 1 8.5 8.5v3a8.51 8.51 0 0 1-8.5 8.5 8.51 8.51 0 0 0-8.5 8.5v3a8.51 8.51 0 0 0 8.5 8.5h21a8.51 8.51 0 0 1 8.5 8.5v3a8.51 8.51 0 0 0 8.5 8.5h12a8.51 8.51 0 0 1 8.5 8.5v3a8.51 8.51 0 0 0 8.5 8.5h29a8.51 8.51 0 0 1 8.5 8.5v3a8.51 8.51 0 0 0 8.5 8.5h108a8.51 8.51 0 0 0 8.5-8.5v-3a8.51 8.51 0 0 1 8.5-8.5h28a8.51 8.51 0 0 0 8.5-8.5v-3a8.51 8.51 0 0 1 8.5-8.5h52a8.51 8.51 0 0 0 8.5-8.5v-3a8.51 8.51 0 0 1 8.5-8.5h16a8.51 8.51 0 0 0 8.5-8.5v-3a8.51 8.51 0 0 0-8.5-8.5h-23a8.51 8.51 0 0 1-8.5-8.5v-3a8.51 8.51 0 0 1 8.5-8.5h23a8.51 8.51 0 0 0 8.5-8.5z" fill="#ffecb3"/><path d="M334.19 252.36l-25.25-6.1a11.11 11.11 0 0 1-2.1-.73l-19.47-9a11.38 11.38 0 0 1-6.48-8.53l-1-6.42a11.39 11.39 0 0 0-11.26-9.58H209.5a6.62 6.62 0 0 0-6.59 6.6v311.3a6.62 6.62 0 0 0 6.59 6.6h126.81a6.62 6.62 0 0 0 6.6-6.6V263.42a11.39 11.39 0 0 0-4-8.64 11.33 11.33 0 0 0-4.72-2.42zm105.27-7.56l-7.07-13.43a7.09 7.09 0 0 1 .51-7.43l.51-.72a7.08 7.08 0 0 0 1.08-5.95 7.1 7.1 0 0 0-6.86-5.27h-67.78a6.62 6.62 0 0 0-6.59 6.6v311.3a6.62 6.62 0 0 0 6.59 6.6h126.81a6.62 6.62 0 0 0 6.6-6.6V295.45a7.11 7.11 0 0 0-4.65-6.66l-13.8-5.07a7.11 7.11 0 0 1-3.21-2.38l-11.17-14.78a7.11 7.11 0 0 0-7.91-2.45l-3.36 1.12a7.1 7.1 0 0 1-9.34-7.05l.45-9.76a7.2 7.2 0 0 0-.81-3.62zm-251.72 52.41l-9.17 17.43a2.56 2.56 0 0 1-2.26 1.36H146a2.55 2.55 0 0 0-2.51 2.1l-3.58 19.67a3.57 3.57 0 0 0 0 .46v23.95a4.45 4.45 0 0 1-2.54 4l-19.5 9.33a2.56 2.56 0 0 1-2 .1l-12.58-4.49a2.55 2.55 0 0 0-.86-.15h-10a2.56 2.56 0 0 0-2.56 2.55v18.58a2.56 2.56 0 0 1-1.87 2.45l-7.4 2.22a2.53 2.53 0 0 1-1.54 0l-9.06-3a2.54 2.54 0 0 0-3.13 1.36l-3.82 8.41a2.55 2.55 0 0 0-.23 1.05v18.91a2.56 2.56 0 0 1-1.31 2.23L53.87 430a2.56 2.56 0 0 0-1.31 2.23V534a2.55 2.55 0 0 0 2.55 2.55H190a2.56 2.56 0 0 0 2.56-2.55V298.4a2.55 2.55 0 0 0-4.56-1.58 2.65 2.65 0 0 0-.26.39z" stroke-miterlimit="10" stroke="#0c5167" stroke-width="7" fill="#65a7ff" fill-opacity=".4"/><rect class="cls-3" x="181.39" y="237" width="32" height="17" rx="8.5" ry="8.5"/><rect class="cls-3" x="181.39" y="449" width="32" height="17" rx="8.5" ry="8.5"/><rect class="cls-3" x="332.39" y="449" width="32" height="17" rx="8.5" ry="8.5"/><path d="M354.42 583.44A4.44 4.44 0 0 0 350 579h-32a4.44 4.44 0 0 0-4.44 4.44 4.44 4.44 0 0 1-4.44 4.44H300a8.89 8.89 0 0 0-8.88 8.88v4.44a4.44 4.44 0 0 1-4.44 4.44h-5a8.88 8.88 0 0 0-8.88 8.88 8.89 8.89 0 0 0 8.88 8.88h13.91a4.44 4.44 0 0 1 4.44 4.44 4.44 4.44 0 0 0 4.44 4.44h36.11a4.44 4.44 0 0 0 4.44-4.44 4.44 4.44 0 0 1 4.44-4.44h5a8.88 8.88 0 0 0 8.88-8.88v-4.44a4.44 4.44 0 0 1 4.44-4.44h9.77a8.89 8.89 0 0 0 8.88-8.88 8.89 8.89 0 0 0-8.88-8.88h-18.69a4.44 4.44 0 0 1-4.44-4.44z" fill="#95ffff" stroke-miterlimit="10" stroke="#0c5167" stroke-width="7"/><rect class="cls-5" x="194.78" y="375.75" width="117" height="143" rx="12" ry="12" transform="rotate(-26.78 253.264 447.225)"/><rect class="cls-3" x="485.89" y="184.5" width="15" height="362" rx="7.5" ry="7.5"/><rect class="cls-3" x="44.89" y="184" width="15" height="362" rx="7.5" ry="7.5"/><rect class="cls-6" x="31.41" y="159" width="484.98" height="40" rx="12.29" ry="12.29"/><rect class="cls-6" x="31.39" y="233" width="43" height="277" rx="11.13" ry="11.13"/><rect class="cls-3" x="157.39" y="490.5" width="20" height="58" rx="10" ry="10"/><rect class="cls-3" x="374.39" y="490.5" width="20" height="58" rx="10" ry="10"/><rect class="cls-6" x="112.39" y="482.5" width="327" height="19" rx="6" ry="6"/><rect class="cls-5" x="146.56" y="139.5" width="252" height="49" rx="12" ry="12" transform="rotate(6.11 272.375 163.878)"/><circle cx="432.79" cy="443.53" r="18.87" fill="none" stroke-miterlimit="10" stroke="#0c5167" stroke-width="7"/><path d="M443 465.5l-1.23-49.5-30.94 41.46m45.79-6.81l-48.27-16.09" fill="none" stroke-linecap="round" stroke-linejoin="round" stroke="#0c5167" stroke-width="7"/><path d="M232.69 593.22l.61-4.3a1.34 1.34 0 0 0-1.13-1.51c-10.81-1.67-10.1-3.25-15.12-6.45a54.71 54.71 0 0 0-21.69-7.87l-26.85-3.82a5.09 5.09 0 0 0-5.75 4.32l-2.09 14.68A5.08 5.08 0 0 0 165 594l26.86 3.82a54.57 54.57 0 0 0 23-1.51c5.72-1.67 5.48-3.39 16.32-2a1.33 1.33 0 0 0 1.51-1.09z" fill="#50a072" stroke-miterlimit="10" stroke="#0c5167" stroke-width="7"/></g></svg>