<svg id="Calque_1" data-name="Calque 1" xmlns="http://www.w3.org/2000/svg" viewBox="0 0 548.54 685.07"><defs><style>.cls-3{fill:#ffecb3}.cls-2{fill:#65a7ff;fill-opacity:.4}.cls-2,.cls-3,.cls-4,.cls-5{stroke:#0c5167;stroke-miterlimit:10;stroke-width:7px}.cls-4{fill:#666}.cls-5{fill:#ffd54f}</style></defs><g id="etat_2" data-name="etat 2"><path d="M479.77 557.5v-3a8.51 8.51 0 0 0-8.5-8.5h-390a8.5 8.5 0 0 0-8.5 8.5v3a8.5 8.5 0 0 0 8.5 8.5h22a8.51 8.51 0 0 1 8.5 8.5v3a8.51 8.51 0 0 1-8.5 8.5 8.5 8.5 0 0 0-8.5 8.5v3a8.5 8.5 0 0 0 8.5 8.5h21a8.51 8.51 0 0 1 8.5 8.5v3a8.5 8.5 0 0 0 8.5 8.5h12a8.51 8.51 0 0 1 8.5 8.5v3a8.5 8.5 0 0 0 8.5 8.5h29a8.51 8.51 0 0 1 8.5 8.5v3a8.5 8.5 0 0 0 8.5 8.5h108a8.51 8.51 0 0 0 8.5-8.5v-3a8.5 8.5 0 0 1 8.5-8.5h28a8.51 8.51 0 0 0 8.5-8.5v-3a8.5 8.5 0 0 1 8.5-8.5h52a8.51 8.51 0 0 0 8.5-8.5v-3a8.5 8.5 0 0 1 8.5-8.5h16a8.51 8.51 0 0 0 8.5-8.5v-3a8.51 8.51 0 0 0-8.5-8.5h-23a8.5 8.5 0 0 1-8.5-8.5v-3a8.5 8.5 0 0 1 8.5-8.5h23a8.51 8.51 0 0 0 8.5-8.5z" fill="#ffecb3"/><rect class="cls-2" x="52.87" y="212" width="140" height="324.5" rx="6.6" ry="6.6"/><rect class="cls-2" x="352.87" y="212" width="140" height="324.5" rx="6.6" ry="6.6"/><rect class="cls-2" x="202.87" y="212" width="140" height="324.5" rx="6.6" ry="6.6"/><rect class="cls-3" x="181.77" y="237" width="32" height="17" rx="8.5" ry="8.5"/><rect class="cls-3" x="181.77" y="449" width="32" height="17" rx="8.5" ry="8.5"/><rect class="cls-3" x="332.77" y="449" width="32" height="17" rx="8.5" ry="8.5"/><rect class="cls-3" x="486.27" y="184.5" width="15" height="362" rx="7.5" ry="7.5"/><rect class="cls-3" x="45.27" y="184" width="15" height="362" rx="7.5" ry="7.5"/><rect class="cls-4" x="31.78" y="159" width="484.98" height="40" rx="12.29" ry="12.29"/><rect class="cls-4" x="31.77" y="233" width="43" height="277" rx="11.13" ry="11.13"/><rect class="cls-3" x="157.77" y="490.5" width="20" height="58" rx="10" ry="10"/><rect class="cls-3" x="374.77" y="490.5" width="20" height="58" rx="10" ry="10"/><rect class="cls-4" x="112.77" y="482.5" width="327" height="19" rx="6" ry="6"/><rect class="cls-5" x="146.93" y="129.5" width="252" height="49" rx="12" ry="12"/><rect class="cls-3" x="331.77" y="237" width="32" height="17" rx="8.5" ry="8.5"/><path d="M233.15 593.22l.61-4.3a1.33 1.33 0 0 0-1.13-1.51c-10.81-1.67-10.1-3.25-15.12-6.45a54.65 54.65 0 0 0-21.69-7.87L169 569.27a5.09 5.09 0 0 0-5.75 4.32l-2.09 14.68a5.09 5.09 0 0 0 4.32 5.75l26.85 3.82a54.56 54.56 0 0 0 23-1.51c5.72-1.67 5.48-3.39 16.32-2a1.33 1.33 0 0 0 1.5-1.11z" fill="#50a072" stroke="#0c5167" stroke-miterlimit="10" stroke-width="7"/></g><rect class="cls-5" x="213.55" y="302.75" width="117" height="143" rx="12" ry="12" transform="rotate(-7.76 271.91 374.082)"/></svg>