<svg id="Calque_1" data-name="Calque 1" xmlns="http://www.w3.org/2000/svg" viewBox="0 0 548.54 685.07"><defs><style>.cls-3{fill:#ffecb3}.cls-3,.cls-4,.cls-5{stroke:#0c5167;stroke-width:7px;stroke-miterlimit:10}.cls-4{fill:#666}.cls-5{fill:#ffd54f}</style></defs><g id="etat_4" data-name="etat 4"><path d="M479.77 557.5v-3a8.51 8.51 0 0 0-8.5-8.5h-390a8.5 8.5 0 0 0-8.5 8.5v3a8.5 8.5 0 0 0 8.5 8.5h22a8.51 8.51 0 0 1 8.5 8.5v3a8.51 8.51 0 0 1-8.5 8.5 8.5 8.5 0 0 0-8.5 8.5v3a8.5 8.5 0 0 0 8.5 8.5h21a8.51 8.51 0 0 1 8.5 8.5v3a8.5 8.5 0 0 0 8.5 8.5h12a8.51 8.51 0 0 1 8.5 8.5v3a8.5 8.5 0 0 0 8.5 8.5h29a8.51 8.51 0 0 1 8.5 8.5v3a8.5 8.5 0 0 0 8.5 8.5h108a8.51 8.51 0 0 0 8.5-8.5v-3a8.5 8.5 0 0 1 8.5-8.5h28a8.51 8.51 0 0 0 8.5-8.5v-3a8.5 8.5 0 0 1 8.5-8.5h52a8.51 8.51 0 0 0 8.5-8.5v-3a8.5 8.5 0 0 1 8.5-8.5h16a8.51 8.51 0 0 0 8.5-8.5v-3a8.51 8.51 0 0 0-8.5-8.5h-23a8.5 8.5 0 0 1-8.5-8.5v-3a8.5 8.5 0 0 1 8.5-8.5h23a8.51 8.51 0 0 0 8.5-8.5z" fill="#ffecb3"/><path d="M334.57 252.36l-25.25-6.1a11.11 11.11 0 0 1-2.1-.73l-19.48-9a11.39 11.39 0 0 1-6.47-8.53l-1-6.42A11.39 11.39 0 0 0 269 212h-59.12a6.62 6.62 0 0 0-6.6 6.6v311.3a6.62 6.62 0 0 0 6.6 6.6h126.81a6.61 6.61 0 0 0 6.59-6.6V263.42a11.38 11.38 0 0 0-4-8.64 11.39 11.39 0 0 0-4.71-2.42zm105.26-7.56l-7.06-13.43a7.11 7.11 0 0 1 .5-7.43l.52-.72a7.08 7.08 0 0 0 1.08-5.95A7.1 7.1 0 0 0 428 212h-67.77a6.62 6.62 0 0 0-6.6 6.6v311.3a6.62 6.62 0 0 0 6.6 6.6H487a6.62 6.62 0 0 0 6.6-6.6V295.45a7.11 7.11 0 0 0-4.65-6.66l-13.8-5.07a7.11 7.11 0 0 1-3.21-2.38l-11.14-14.78a7.09 7.09 0 0 0-7.9-2.45l-3.37 1.12a7.09 7.09 0 0 1-9.33-7.05l.44-9.76a7 7 0 0 0-.81-3.62zm-309.6 78.06v15.58a5 5 0 0 1-3.59 4.8l-7.85 2.3a5 5 0 0 1-3.09-.09l-11.65-4.16a5.07 5.07 0 0 0-1.68-.29h-7.14a5 5 0 0 0-5 5v14.28a5 5 0 0 1-3.56 4.79l-4.92 1.48a5 5 0 0 1-3-.05l-6.23-2.08a5 5 0 0 0-6.13 2.68l-2.71 5.9a5 5 0 0 0-.45 2.07v17a5 5 0 0 1-2.57 4.37l-5.15 2.86a5 5 0 0 0-2.58 4.37V534a2.56 2.56 0 0 0 2.56 2.55h134.89a2.55 2.55 0 0 0 2.55-2.55V274.14a1.72 1.72 0 0 0-2.63-1.47l-14.25 8.82a1.73 1.73 0 0 0-.82 1.47v15.45a1.72 1.72 0 0 1-2.39 1.59l-20.34-8.47a1.74 1.74 0 0 0-2.07.59l-19.18 27.52a5.62 5.62 0 0 0-1.02 3.22z" stroke-miterlimit="10" stroke="#0c5167" stroke-width="7" fill="#65a7ff" fill-opacity=".4"/><rect class="cls-3" x="181.77" y="237" width="32" height="17" rx="8.5" ry="8.5"/><rect class="cls-3" x="181.77" y="449" width="32" height="17" rx="8.5" ry="8.5"/><rect class="cls-3" x="332.77" y="449" width="32" height="17" rx="8.5" ry="8.5"/><rect class="cls-3" x="486.27" y="184.5" width="15" height="362" rx="7.5" ry="7.5"/><rect class="cls-3" x="45.27" y="184" width="15" height="362" rx="7.5" ry="7.5"/><rect class="cls-4" x="31.78" y="159" width="484.98" height="40" rx="12.29" ry="12.29"/><rect class="cls-4" x="31.77" y="233" width="43" height="277" rx="11.13" ry="11.13"/><rect class="cls-3" x="157.77" y="490.5" width="20" height="58" rx="10" ry="10"/><rect class="cls-3" x="374.77" y="490.5" width="20" height="58" rx="10" ry="10"/><rect class="cls-4" x="112.77" y="482.5" width="327" height="19" rx="6" ry="6"/><rect class="cls-5" x="146.93" y="129.5" width="252" height="49" rx="12" ry="12"/><rect class="cls-5" x="188.78" y="317.75" width="117" height="143" rx="12" ry="12" transform="rotate(-26.78 247.273 389.225)"/><circle cx="433.17" cy="443.53" r="18.87" fill="none" stroke-miterlimit="10" stroke="#0c5167" stroke-width="7"/><path d="M443.38 465.5l-1.24-49.5-30.93 41.46m45.78-6.81l-48.26-16.09" fill="none" stroke-linecap="round" stroke-linejoin="round" stroke="#0c5167" stroke-width="7"/><path d="M233.07 593.22l.61-4.3a1.35 1.35 0 0 0-1.14-1.51c-10.8-1.67-10.09-3.25-15.12-6.45a54.6 54.6 0 0 0-21.69-7.87l-26.85-3.82a5.09 5.09 0 0 0-5.75 4.32l-2.08 14.68a5.07 5.07 0 0 0 4.31 5.75l26.85 3.82a54.61 54.61 0 0 0 23-1.51c5.71-1.67 5.47-3.39 16.32-2a1.34 1.34 0 0 0 1.54-1.11z" fill="#50a072" stroke-miterlimit="10" stroke="#0c5167" stroke-width="7"/><path d="M354.42 583.44A4.44 4.44 0 0 0 350 579h-32a4.44 4.44 0 0 0-4.44 4.44 4.44 4.44 0 0 1-4.44 4.44H300a8.89 8.89 0 0 0-8.88 8.88v4.44a4.44 4.44 0 0 1-4.44 4.44h-5a8.88 8.88 0 0 0-8.88 8.88 8.89 8.89 0 0 0 8.88 8.88h13.91a4.44 4.44 0 0 1 4.44 4.44 4.44 4.44 0 0 0 4.44 4.44h36.11a4.44 4.44 0 0 0 4.44-4.44 4.44 4.44 0 0 1 4.44-4.44h5a8.88 8.88 0 0 0 8.88-8.88v-4.44a4.44 4.44 0 0 1 4.44-4.44h9.77a8.89 8.89 0 0 0 8.88-8.88 8.89 8.89 0 0 0-8.88-8.88h-18.69a4.44 4.44 0 0 1-4.44-4.44z" fill="#95ffff" stroke-miterlimit="10" stroke="#0c5167" stroke-width="7"/></g></svg>