<svg id="Calque_1" data-name="Calque 1" xmlns="http://www.w3.org/2000/svg" viewBox="0 0 548.54 685.07"><defs><style>.cls-3{fill:#ffecb3}.cls-2{fill:#65a7ff;fill-opacity:.4}.cls-2,.cls-3,.cls-4,.cls-5{stroke:#0c5167;stroke-width:7px;stroke-miterlimit:10}.cls-4{fill:#666}.cls-5{fill:#ffd54f}</style></defs><g id="etat_3" data-name="etat 3"><path d="M479.3 557.5v-3a8.5 8.5 0 0 0-8.5-8.5h-390a8.51 8.51 0 0 0-8.5 8.5v3a8.51 8.51 0 0 0 8.5 8.5h22a8.5 8.5 0 0 1 8.5 8.5v3a8.5 8.5 0 0 1-8.5 8.5 8.51 8.51 0 0 0-8.5 8.5v3a8.51 8.51 0 0 0 8.5 8.5h21a8.5 8.5 0 0 1 8.5 8.5v3a8.51 8.51 0 0 0 8.5 8.5h12a8.5 8.5 0 0 1 8.5 8.5v3a8.51 8.51 0 0 0 8.5 8.5h29a8.5 8.5 0 0 1 8.5 8.5v3a8.51 8.51 0 0 0 8.5 8.5h108a8.5 8.5 0 0 0 8.5-8.5v-3a8.51 8.51 0 0 1 8.5-8.5h28a8.5 8.5 0 0 0 8.5-8.5v-3a8.51 8.51 0 0 1 8.5-8.5h52a8.5 8.5 0 0 0 8.5-8.5v-3a8.51 8.51 0 0 1 8.5-8.5h16a8.5 8.5 0 0 0 8.5-8.5v-3a8.5 8.5 0 0 0-8.5-8.5h-23a8.51 8.51 0 0 1-8.5-8.5v-3a8.51 8.51 0 0 1 8.5-8.5h23a8.5 8.5 0 0 0 8.5-8.5z" fill="#ffecb3"/><path class="cls-2" d="M185.81 212h-39.94a9.44 9.44 0 0 0-9.52 9.34l-.39 9.28a10 10 0 0 1-12.86 9.13l-2.38-.73a10 10 0 0 0-11.94 5.34L101.07 261a9.94 9.94 0 0 0-.45 7.25l5.6 17.42a10 10 0 0 1-3.63 11.11L67 322.64a10 10 0 0 0-3.57 4.85l-10.5 30.81a10 10 0 0 0-.53 3.21V529.9a6.62 6.62 0 0 0 6.6 6.6h126.81a6.61 6.61 0 0 0 6.59-6.6V218.6a6.61 6.61 0 0 0-6.59-6.6z"/><rect class="cls-2" x="352.4" y="212" width="140" height="324.5" rx="6.6" ry="6.6"/><path class="cls-2" d="M334.11 252.36l-25.26-6.1a11.36 11.36 0 0 1-2.1-.73l-19.47-9a11.39 11.39 0 0 1-6.47-8.53l-1-6.42a11.38 11.38 0 0 0-11.27-9.58h-59.12a6.62 6.62 0 0 0-6.6 6.6v311.3a6.62 6.62 0 0 0 6.6 6.6h126.81a6.62 6.62 0 0 0 6.59-6.6V263.42a11.38 11.38 0 0 0-4-8.64 11.39 11.39 0 0 0-4.71-2.42z"/><rect class="cls-3" x="181.3" y="237" width="32" height="17" rx="8.5" ry="8.5"/><rect class="cls-3" x="181.3" y="449" width="32" height="17" rx="8.5" ry="8.5"/><rect class="cls-3" x="332.3" y="449" width="32" height="17" rx="8.5" ry="8.5"/><rect class="cls-3" x="485.8" y="184.5" width="15" height="362" rx="7.5" ry="7.5"/><rect class="cls-3" x="44.8" y="184" width="15" height="362" rx="7.5" ry="7.5"/><rect class="cls-4" x="31.32" y="159" width="484.98" height="40" rx="12.29" ry="12.29"/><rect class="cls-4" x="31.3" y="233" width="43" height="277" rx="11.13" ry="11.13"/><rect class="cls-3" x="157.3" y="490.5" width="20" height="58" rx="10" ry="10"/><rect class="cls-3" x="374.3" y="490.5" width="20" height="58" rx="10" ry="10"/><rect class="cls-4" x="112.3" y="482.5" width="327" height="19" rx="6" ry="6"/><rect class="cls-5" x="146.47" y="129.5" width="252" height="49" rx="12" ry="12"/><rect class="cls-3" x="331.3" y="237" width="32" height="17" rx="8.5" ry="8.5"/><path d="M232.69 593.22l.61-4.3a1.34 1.34 0 0 0-1.13-1.51c-10.81-1.67-10.1-3.25-15.12-6.45a54.71 54.71 0 0 0-21.69-7.87l-26.85-3.82a5.09 5.09 0 0 0-5.75 4.32l-2.09 14.68A5.08 5.08 0 0 0 165 594l26.86 3.82a54.57 54.57 0 0 0 23-1.51c5.72-1.67 5.48-3.39 16.32-2a1.33 1.33 0 0 0 1.51-1.09z" fill="#50a072" stroke-miterlimit="10" stroke="#0c5167" stroke-width="7"/><circle cx="433.17" cy="443.53" r="18.87" fill="none" stroke-miterlimit="10" stroke="#0c5167" stroke-width="7"/><path d="M443.38 465.5l-1.24-49.5-30.93 41.46m45.78-6.81l-48.26-16.09" fill="none" stroke-linecap="round" stroke-linejoin="round" stroke="#0c5167" stroke-width="7"/></g><rect class="cls-5" x="204.78" y="299.75" width="117" height="143" rx="12" ry="12" transform="rotate(-21.06 263.313 371.28)"/></svg>