<svg id="Calque_1" data-name="Calque 1" xmlns="http://www.w3.org/2000/svg" viewBox="0 0 548.54 685.07"><defs><style>.cls-3{fill:#ffecb3}.cls-2{fill:#65a7ff;fill-opacity:.4}.cls-2,.cls-3,.cls-4,.cls-5{stroke:#0c5167;stroke-miterlimit:10;stroke-width:7px}.cls-4{fill:#666}.cls-5{fill:#ffd54f}</style></defs><g id="etat_1" data-name="etat 1"><path d="M479 557.5v-3a8.51 8.51 0 0 0-8.5-8.5h-390a8.51 8.51 0 0 0-8.5 8.5v3a8.51 8.51 0 0 0 8.5 8.5h22a8.51 8.51 0 0 1 8.5 8.5v3a8.51 8.51 0 0 1-8.5 8.5 8.51 8.51 0 0 0-8.5 8.5v3a8.51 8.51 0 0 0 8.5 8.5h21a8.51 8.51 0 0 1 8.5 8.5v3a8.51 8.51 0 0 0 8.5 8.5h12a8.51 8.51 0 0 1 8.5 8.5v3a8.51 8.51 0 0 0 8.5 8.5h29a8.51 8.51 0 0 1 8.5 8.5v3a8.51 8.51 0 0 0 8.5 8.5h108a8.51 8.51 0 0 0 8.5-8.5v-3a8.51 8.51 0 0 1 8.5-8.5h28a8.51 8.51 0 0 0 8.5-8.5v-3a8.51 8.51 0 0 1 8.5-8.5h52a8.51 8.51 0 0 0 8.5-8.5v-3a8.51 8.51 0 0 1 8.5-8.5h16a8.51 8.51 0 0 0 8.5-8.5v-3a8.51 8.51 0 0 0-8.5-8.5h-23a8.51 8.51 0 0 1-8.5-8.5v-3a8.51 8.51 0 0 1 8.5-8.5h23a8.51 8.51 0 0 0 8.5-8.5z" fill="#ffecb3"/><rect class="cls-2" x="202.52" y="212" width="140" height="324.5" rx="6.6" ry="6.6"/><rect class="cls-2" x="52.17" y="212" width="140" height="324.5" rx="6.6" ry="6.6"/><rect class="cls-2" x="352.87" y="212" width="140" height="324.5" rx="6.6" ry="6.6"/><rect class="cls-3" x="181" y="237" width="32" height="17" rx="8.5" ry="8.5"/><rect class="cls-3" x="181" y="449" width="32" height="17" rx="8.5" ry="8.5"/><rect class="cls-3" x="332" y="237" width="32" height="17" rx="8.5" ry="8.5"/><rect class="cls-3" x="485.5" y="184.5" width="15" height="362" rx="7.5" ry="7.5"/><rect class="cls-3" x="44.5" y="184" width="15" height="362" rx="7.5" ry="7.5"/><rect class="cls-4" x="31.02" y="159" width="484.98" height="40" rx="12.29" ry="12.29"/><rect class="cls-4" x="31" y="233" width="43" height="277" rx="11.13" ry="11.13"/><rect class="cls-3" x="157" y="490.5" width="20" height="58" rx="10" ry="10"/><rect class="cls-3" x="374" y="490.5" width="20" height="58" rx="10" ry="10"/><rect class="cls-4" x="112" y="482.5" width="327" height="19" rx="6" ry="6"/><rect class="cls-5" x="146.17" y="129.5" width="252" height="49" rx="12" ry="12"/><rect class="cls-3" x="332" y="449" width="32" height="17" rx="8.5" ry="8.5"/><rect class="cls-5" x="214.02" y="272.75" width="117" height="143" rx="12" ry="12"/></g></svg>